<svg width="184" height="36" viewBox="0 0 184 36" fill="none" xmlns="http://www.w3.org/2000/svg">
<path d="M181.823 12.7437C182.447 12.7437 182.963 12.9477 183.371 13.3557C183.779 13.7637 183.983 14.2917 183.983 14.9397V30.1677C183.983 30.7917 183.779 31.3197 183.371 31.7517C182.963 32.1597 182.447 32.3637 181.823 32.3637C181.199 32.3637 180.683 32.1597 180.275 31.7517C179.867 31.3197 179.663 30.7917 179.663 30.1677V28.4037L180.455 28.7277C180.455 29.0397 180.287 29.4237 179.951 29.8797C179.615 30.3117 179.159 30.7437 178.583 31.1757C178.007 31.6077 177.323 31.9797 176.531 32.2917C175.763 32.5797 174.923 32.7237 174.011 32.7237C172.355 32.7237 170.855 32.3037 169.511 31.4637C168.167 30.5997 167.099 29.4237 166.307 27.9357C165.539 26.4237 165.155 24.6957 165.155 22.7517C165.155 20.7837 165.539 19.0557 166.307 17.5677C167.099 16.0557 168.155 14.8797 169.475 14.0397C170.795 13.1757 172.259 12.7437 173.867 12.7437C174.899 12.7437 175.847 12.8997 176.711 13.2117C177.575 13.5237 178.319 13.9197 178.943 14.3997C179.591 14.8797 180.083 15.3717 180.419 15.8757C180.779 16.3557 180.959 16.7637 180.959 17.0997L179.663 17.5677V14.9397C179.663 14.3157 179.867 13.7997 180.275 13.3917C180.683 12.9597 181.199 12.7437 181.823 12.7437ZM174.551 28.7637C175.607 28.7637 176.531 28.4997 177.323 27.9717C178.115 27.4437 178.727 26.7237 179.159 25.8117C179.615 24.8997 179.843 23.8797 179.843 22.7517C179.843 21.5997 179.615 20.5677 179.159 19.6557C178.727 18.7437 178.115 18.0237 177.323 17.4957C176.531 16.9677 175.607 16.7037 174.551 16.7037C173.519 16.7037 172.607 16.9677 171.815 17.4957C171.023 18.0237 170.399 18.7437 169.943 19.6557C169.511 20.5677 169.295 21.5997 169.295 22.7517C169.295 23.8797 169.511 24.8997 169.943 25.8117C170.399 26.7237 171.023 27.4437 171.815 27.9717C172.607 28.4997 173.519 28.7637 174.551 28.7637Z" fill="white"/>
<path d="M149.659 32.3636C149.035 32.3636 148.519 32.1596 148.111 31.7516C147.703 31.3196 147.499 30.7916 147.499 30.1676V7.91963C147.499 7.29563 147.703 6.77963 148.111 6.37163C148.519 5.93963 149.035 5.72363 149.659 5.72363C150.283 5.72363 150.799 5.93963 151.207 6.37163C151.615 6.77963 151.819 7.29563 151.819 7.91963V30.1676C151.819 30.7916 151.615 31.3196 151.207 31.7516C150.799 32.1596 150.283 32.3636 149.659 32.3636ZM161.107 13.1036C161.659 13.1036 162.139 13.3316 162.547 13.7876C162.955 14.2436 163.159 14.6876 163.159 15.1196C163.159 15.6956 162.871 16.2356 162.295 16.7396L151.459 26.7116L151.279 21.7436L159.523 13.7876C159.979 13.3316 160.507 13.1036 161.107 13.1036ZM161.647 32.3276C161.023 32.3276 160.495 32.0876 160.063 31.6076L153.403 24.5516L156.679 21.5276L163.159 28.5836C163.615 29.0636 163.843 29.6036 163.843 30.2036C163.843 30.8276 163.591 31.3436 163.087 31.7516C162.607 32.1356 162.127 32.3276 161.647 32.3276Z" fill="white"/>
<path d="M141.742 12.7437C142.366 12.7437 142.882 12.9477 143.29 13.3557C143.698 13.7637 143.902 14.2917 143.902 14.9397V30.1677C143.902 30.7917 143.698 31.3197 143.29 31.7517C142.882 32.1597 142.366 32.3637 141.742 32.3637C141.118 32.3637 140.602 32.1597 140.194 31.7517C139.786 31.3197 139.582 30.7917 139.582 30.1677V28.4037L140.374 28.7277C140.374 29.0397 140.206 29.4237 139.87 29.8797C139.534 30.3117 139.078 30.7437 138.502 31.1757C137.926 31.6077 137.242 31.9797 136.45 32.2917C135.682 32.5797 134.842 32.7237 133.93 32.7237C132.274 32.7237 130.774 32.3037 129.43 31.4637C128.086 30.5997 127.018 29.4237 126.226 27.9357C125.458 26.4237 125.074 24.6957 125.074 22.7517C125.074 20.7837 125.458 19.0557 126.226 17.5677C127.018 16.0557 128.074 14.8797 129.394 14.0397C130.714 13.1757 132.178 12.7437 133.786 12.7437C134.818 12.7437 135.766 12.8997 136.63 13.2117C137.494 13.5237 138.238 13.9197 138.862 14.3997C139.51 14.8797 140.002 15.3717 140.338 15.8757C140.698 16.3557 140.878 16.7637 140.878 17.0997L139.582 17.5677V14.9397C139.582 14.3157 139.786 13.7997 140.194 13.3917C140.602 12.9597 141.118 12.7437 141.742 12.7437ZM134.47 28.7637C135.526 28.7637 136.45 28.4997 137.242 27.9717C138.034 27.4437 138.646 26.7237 139.078 25.8117C139.534 24.8997 139.762 23.8797 139.762 22.7517C139.762 21.5997 139.534 20.5677 139.078 19.6557C138.646 18.7437 138.034 18.0237 137.242 17.4957C136.45 16.9677 135.526 16.7037 134.47 16.7037C133.438 16.7037 132.526 16.9677 131.734 17.4957C130.942 18.0237 130.318 18.7437 129.862 19.6557C129.43 20.5677 129.214 21.5997 129.214 22.7517C129.214 23.8797 129.43 24.8997 129.862 25.8117C130.318 26.7237 130.942 27.4437 131.734 27.9717C132.526 28.4997 133.438 28.7637 134.47 28.7637Z" fill="white"/>
<path d="M120.576 5.72363C121.2 5.72363 121.716 5.92763 122.124 6.33563C122.532 6.74363 122.736 7.27163 122.736 7.91963V30.1676C122.736 30.7916 122.532 31.3196 122.124 31.7516C121.716 32.1596 121.2 32.3636 120.576 32.3636C119.952 32.3636 119.436 32.1596 119.028 31.7516C118.62 31.3196 118.416 30.7916 118.416 30.1676V28.4036L119.208 28.7276C119.208 29.0396 119.04 29.4236 118.704 29.8796C118.368 30.3116 117.912 30.7436 117.336 31.1756C116.76 31.6076 116.076 31.9796 115.284 32.2916C114.516 32.5796 113.676 32.7236 112.764 32.7236C111.108 32.7236 109.608 32.3036 108.264 31.4636C106.92 30.5996 105.852 29.4236 105.06 27.9356C104.292 26.4236 103.908 24.6956 103.908 22.7516C103.908 20.7836 104.292 19.0556 105.06 17.5676C105.852 16.0556 106.908 14.8796 108.228 14.0396C109.548 13.1756 111.012 12.7436 112.62 12.7436C113.652 12.7436 114.6 12.8996 115.464 13.2116C116.328 13.5236 117.072 13.9196 117.696 14.3996C118.344 14.8796 118.836 15.3716 119.172 15.8756C119.532 16.3556 119.712 16.7636 119.712 17.0996L118.416 17.5676V7.91963C118.416 7.29563 118.62 6.77963 119.028 6.37163C119.436 5.93963 119.952 5.72363 120.576 5.72363ZM113.304 28.7636C114.36 28.7636 115.284 28.4996 116.076 27.9716C116.868 27.4436 117.48 26.7236 117.912 25.8116C118.368 24.8996 118.596 23.8796 118.596 22.7516C118.596 21.5996 118.368 20.5676 117.912 19.6556C117.48 18.7436 116.868 18.0236 116.076 17.4956C115.284 16.9676 114.36 16.7036 113.304 16.7036C112.272 16.7036 111.36 16.9676 110.568 17.4956C109.776 18.0236 109.152 18.7436 108.696 19.6556C108.264 20.5676 108.048 21.5996 108.048 22.7516C108.048 23.8796 108.264 24.8996 108.696 25.8116C109.152 26.7236 109.776 27.4436 110.568 27.9716C111.36 28.4996 112.272 28.7636 113.304 28.7636Z" fill="white"/>
<path d="M99.411 12.7437C100.035 12.7437 100.551 12.9477 100.959 13.3557C101.367 13.7637 101.571 14.2917 101.571 14.9397V30.1677C101.571 30.7917 101.367 31.3197 100.959 31.7517C100.551 32.1597 100.035 32.3637 99.411 32.3637C98.787 32.3637 98.271 32.1597 97.863 31.7517C97.455 31.3197 97.251 30.7917 97.251 30.1677V28.4037L98.043 28.7277C98.043 29.0397 97.875 29.4237 97.539 29.8797C97.203 30.3117 96.747 30.7437 96.171 31.1757C95.595 31.6077 94.911 31.9797 94.119 32.2917C93.351 32.5797 92.511 32.7237 91.599 32.7237C89.943 32.7237 88.443 32.3037 87.099 31.4637C85.755 30.5997 84.687 29.4237 83.895 27.9357C83.127 26.4237 82.743 24.6957 82.743 22.7517C82.743 20.7837 83.127 19.0557 83.895 17.5677C84.687 16.0557 85.743 14.8797 87.063 14.0397C88.383 13.1757 89.847 12.7437 91.455 12.7437C92.487 12.7437 93.435 12.8997 94.299 13.2117C95.163 13.5237 95.907 13.9197 96.531 14.3997C97.179 14.8797 97.671 15.3717 98.007 15.8757C98.367 16.3557 98.547 16.7637 98.547 17.0997L97.251 17.5677V14.9397C97.251 14.3157 97.455 13.7997 97.863 13.3917C98.271 12.9597 98.787 12.7437 99.411 12.7437ZM92.139 28.7637C93.195 28.7637 94.119 28.4997 94.911 27.9717C95.703 27.4437 96.315 26.7237 96.747 25.8117C97.203 24.8997 97.431 23.8797 97.431 22.7517C97.431 21.5997 97.203 20.5677 96.747 19.6557C96.315 18.7437 95.703 18.0237 94.911 17.4957C94.119 16.9677 93.195 16.7037 92.139 16.7037C91.107 16.7037 90.195 16.9677 89.403 17.4957C88.611 18.0237 87.987 18.7437 87.531 19.6557C87.099 20.5677 86.883 21.5997 86.883 22.7517C86.883 23.8797 87.099 24.8997 87.531 25.8117C87.987 26.7237 88.611 27.4437 89.403 27.9717C90.195 28.4997 91.107 28.7637 92.139 28.7637Z" fill="white"/>
<path d="M72.0625 32.7237C70.3825 32.7237 68.8705 32.5197 67.5265 32.1117C66.1825 31.6797 64.8985 30.9357 63.6745 29.8797C63.3625 29.6157 63.1225 29.3157 62.9545 28.9797C62.7865 28.6437 62.7025 28.3077 62.7025 27.9717C62.7025 27.4197 62.8945 26.9397 63.2785 26.5317C63.6865 26.0997 64.1905 25.8837 64.7905 25.8837C65.2465 25.8837 65.6545 26.0277 66.0145 26.3157C66.9265 27.0597 67.8265 27.6237 68.7145 28.0077C69.6265 28.3917 70.7425 28.5837 72.0625 28.5837C72.9505 28.5837 73.7665 28.4517 74.5105 28.1877C75.2545 27.8997 75.8545 27.5277 76.3105 27.0717C76.7665 26.5917 76.9945 26.0517 76.9945 25.4517C76.9945 24.7317 76.7785 24.1197 76.3465 23.6157C75.9145 23.1117 75.2545 22.6917 74.3665 22.3556C73.4785 21.9957 72.3505 21.7197 70.9825 21.5276C69.6865 21.3357 68.5465 21.0477 67.5625 20.6637C66.5785 20.2557 65.7505 19.7517 65.0785 19.1517C64.4305 18.5277 63.9385 17.8077 63.6025 16.9917C63.2665 16.1517 63.0985 15.2157 63.0985 14.1837C63.0985 12.6237 63.4945 11.2916 64.2865 10.1876C65.1025 9.08365 66.1945 8.24365 67.5625 7.66765C68.9305 7.09165 70.4425 6.80365 72.0985 6.80365C73.6585 6.80365 75.0985 7.04365 76.4185 7.52365C77.7625 7.97965 78.8545 8.56765 79.6945 9.28765C80.3905 9.83965 80.7385 10.4757 80.7385 11.1957C80.7385 11.7236 80.5345 12.2036 80.1265 12.6356C79.7185 13.0676 79.2385 13.2837 78.6865 13.2837C78.3265 13.2837 78.0025 13.1757 77.7145 12.9597C77.3305 12.6237 76.8145 12.3117 76.1665 12.0237C75.5185 11.7117 74.8345 11.4597 74.1145 11.2677C73.3945 11.0517 72.7225 10.9437 72.0985 10.9437C71.0665 10.9437 70.1905 11.0756 69.4705 11.3396C68.7745 11.6037 68.2465 11.9637 67.8865 12.4197C67.5265 12.8757 67.3465 13.4037 67.3465 14.0036C67.3465 14.7237 67.5505 15.3237 67.9585 15.8037C68.3905 16.2597 69.0025 16.6317 69.7945 16.9197C70.5865 17.1837 71.5345 17.4237 72.6385 17.6397C74.0785 17.9037 75.3385 18.2157 76.4185 18.5757C77.5225 18.9357 78.4345 19.4037 79.1545 19.9797C79.8745 20.5317 80.4145 21.2397 80.7745 22.1037C81.1345 22.9437 81.3145 23.9757 81.3145 25.1996C81.3145 26.7597 80.8825 28.1037 80.0185 29.2317C79.1545 30.3597 78.0145 31.2237 76.5985 31.8237C75.2065 32.4237 73.6945 32.7237 72.0625 32.7237Z" fill="white"/>
<path d="M32.6204 13.835C32.7208 13.3693 33.2228 13.0173 33.8089 13.0304C34.9324 13.0523 36.7179 13.811 36.4601 16.135C36.2864 17.696 34.159 21.8479 36.0531 23.457C37.9499 25.0661 41.8303 23.0154 43.5263 21.533C45.7352 19.6003 53.3441 11.5131 46.1748 3.5243C45.7542 3.05643 45.765 2.41802 46.21 1.96327C46.8016 1.35984 47.9006 1.28988 48.5899 1.8146C50.7553 3.47183 54.5381 7.6499 52.7498 15.8158C50.5599 25.827 34.566 33.9557 30.1266 35.8403C29.4699 36.1202 28.664 36.024 28.1375 35.602C26.6993 34.4455 24.3059 31.6273 26.0725 26.5047C28.3872 19.7971 31.6815 18.2361 32.6204 13.835Z" fill="#F74F22"/>
<path d="M24.7319 2.03547C22.3141 0.752095 19.4268 0 16.3171 0C7.80725 0 0.909302 5.59043 0.909302 12.4839C0.909302 12.9802 0.955435 13.4677 1.02599 13.9509C1.17252 15.8312 1.79665 17.8295 2.99877 19.8912C2.27696 14.1739 8.23057 9.37277 15.2533 9.37277C19.9669 9.37277 25.6654 11.8018 27.4102 17.7201C27.4889 17.589 28.208 16.4455 28.7915 14.8823C30.1672 11.2858 30.8619 5.77408 24.7319 2.03547Z" fill="#F74F22"/>
<path d="M45.2412 4.19555C43.8165 2.24754 42.0527 1.04287 40.7692 0.489732C39.8004 0.0721447 39.0081 0.144293 38.5169 0.830798L38.4979 0.857036C38.1424 1.3577 38.6526 2.09012 39.1763 2.49678C42.0392 4.72027 43.4773 7.20393 44.5194 9.73351C44.6008 9.93465 44.5384 10.1555 44.3566 10.3085C43.9821 10.6321 43.3173 10.5162 43.1354 10.1008C42.4408 8.49824 41.3852 7.21924 40.1369 5.91619C38.308 4.00534 36.3352 2.77663 34.8834 2.27377C33.9309 1.94364 32.9866 2.05733 32.6067 2.83129L32.5931 2.86189C32.3136 3.43034 32.6745 3.99222 33.2905 4.36609C37.1194 6.69889 39.5128 9.6395 41.027 12.6195C41.0975 12.7594 41.1084 13.0983 40.9754 13.2076C40.7366 13.4022 40.3703 13.3191 40.1993 13.0851C39.1709 11.6706 38.6065 11.0781 37.5671 10.0352C35.8603 8.3277 34.9567 7.87732 33.4669 7.25422C32.8319 6.98749 31.9799 7.07057 31.5267 7.545C30.9731 8.13093 31.2472 8.81525 32.0694 9.32904C38.9836 13.647 40.3431 18.481 39.6865 22.4841C39.6946 22.4339 40.0908 22.2743 40.1423 22.2458C40.5602 22.0141 40.9564 21.7583 41.339 21.4916C42.6199 20.5973 43.6972 19.5261 44.6333 18.3913C45.5153 17.3222 46.3212 16.1679 46.8096 14.9282C47.3388 13.5793 47.507 12.1341 47.469 10.7239C47.4636 10.5424 47.4555 10.361 47.4419 10.1795C47.3035 8.08065 46.5654 6.00583 45.2412 4.19555Z" fill="#F74F22"/>
<path d="M24.1241 27.4733C24.2951 26.7474 23.9043 26.0128 23.1201 25.6302C22.1731 25.1711 21.188 24.6682 20.5883 24.3119C18.3632 22.9957 16.3714 21.4543 15.0607 20.0026C13.1259 17.86 11.4924 14.9653 12.1328 12.298C12.3309 11.4738 12.7705 10.7129 13.3729 10.0352C14.1435 9.1672 15.1801 8.4326 16.3226 7.86197V0.0633545C7.91313 0.157366 1.12915 5.70625 1.12915 12.5429C1.12915 13.0392 1.17528 13.5267 1.24584 14.0099C1.47649 16.944 2.62977 20.2387 5.57401 23.5467C7.848 26.1025 11.5331 28.737 15.3891 31.0523C18.9195 33.173 22.7863 34.9593 26.3954 35.9999C24.8432 34.5198 23.0984 31.7935 24.1241 27.4733Z" fill="#F74F22"/>
</svg>
