<svg width="209" height="44" viewBox="0 0 209 44" fill="none" xmlns="http://www.w3.org/2000/svg">
<path d="M73.5023 8.8C75.2303 8.8 76.7663 9.124 78.1103 9.772C79.4543 10.42 80.5823 11.332 81.4943 12.508C82.4303 13.66 83.1263 15.004 83.5823 16.54C84.0623 18.052 84.3023 19.672 84.3023 21.4C84.3023 23.728 83.8823 25.852 83.0423 27.772C82.2023 29.668 80.9783 31.18 79.3703 32.308C77.7863 33.436 75.8303 34 73.5023 34H64.8983C64.2743 34 63.7463 33.796 63.3143 33.388C62.9063 32.956 62.7023 32.428 62.7023 31.804V10.996C62.7023 10.372 62.9063 9.856 63.3143 9.448C63.7463 9.016 64.2743 8.8 64.8983 8.8H73.5023ZM73.1423 29.86C74.6543 29.86 75.8903 29.476 76.8503 28.708C77.8103 27.916 78.5063 26.884 78.9383 25.612C79.3943 24.316 79.6223 22.912 79.6223 21.4C79.6223 20.272 79.4903 19.204 79.2263 18.196C78.9863 17.164 78.6023 16.264 78.0743 15.496C77.5463 14.704 76.8743 14.08 76.0583 13.624C75.2423 13.168 74.2703 12.94 73.1423 12.94H66.8423L67.2023 12.616V30.256L66.9863 29.86H73.1423ZM107.042 24.388C107.042 26.356 106.598 28.096 105.71 29.608C104.846 31.096 103.67 32.26 102.182 33.1C100.718 33.94 99.0739 34.36 97.2499 34.36C95.4259 34.36 93.7699 33.94 92.2819 33.1C90.8179 32.26 89.6419 31.096 88.7539 29.608C87.8899 28.096 87.4579 26.356 87.4579 24.388C87.4579 22.42 87.8899 20.692 88.7539 19.204C89.6419 17.692 90.8179 16.516 92.2819 15.676C93.7699 14.812 95.4259 14.38 97.2499 14.38C99.0739 14.38 100.718 14.812 102.182 15.676C103.67 16.516 104.846 17.692 105.71 19.204C106.598 20.692 107.042 22.42 107.042 24.388ZM102.722 24.388C102.722 23.164 102.47 22.108 101.966 21.22C101.486 20.308 100.826 19.6 99.9859 19.096C99.1699 18.592 98.2579 18.34 97.2499 18.34C96.2419 18.34 95.3179 18.592 94.4779 19.096C93.6619 19.6 93.0019 20.308 92.4979 21.22C92.0179 22.108 91.7779 23.164 91.7779 24.388C91.7779 25.588 92.0179 26.644 92.4979 27.556C93.0019 28.444 93.6619 29.14 94.4779 29.644C95.3179 30.148 96.2419 30.4 97.2499 30.4C98.2579 30.4 99.1699 30.148 99.9859 29.644C100.826 29.14 101.486 28.444 101.966 27.556C102.47 26.644 102.722 25.588 102.722 24.388ZM121.119 14.38C122.895 14.38 124.239 14.752 125.151 15.496C126.087 16.24 126.723 17.236 127.059 18.484C127.419 19.708 127.599 21.076 127.599 22.588V31.804C127.599 32.428 127.395 32.956 126.987 33.388C126.579 33.796 126.063 34 125.439 34C124.815 34 124.299 33.796 123.891 33.388C123.483 32.956 123.279 32.428 123.279 31.804V22.588C123.279 21.796 123.171 21.088 122.955 20.464C122.763 19.816 122.403 19.3 121.875 18.916C121.347 18.532 120.591 18.34 119.607 18.34C118.647 18.34 117.831 18.532 117.159 18.916C116.511 19.3 116.007 19.816 115.647 20.464C115.311 21.088 115.143 21.796 115.143 22.588V31.804C115.143 32.428 114.939 32.956 114.531 33.388C114.123 33.796 113.607 34 112.983 34C112.359 34 111.843 33.796 111.435 33.388C111.027 32.956 110.823 32.428 110.823 31.804V16.936C110.823 16.312 111.027 15.796 111.435 15.388C111.843 14.956 112.359 14.74 112.983 14.74C113.607 14.74 114.123 14.956 114.531 15.388C114.939 15.796 115.143 16.312 115.143 16.936V18.484L114.603 18.376C114.819 17.968 115.131 17.536 115.539 17.08C115.947 16.6 116.427 16.156 116.979 15.748C117.531 15.34 118.155 15.016 118.851 14.776C119.547 14.512 120.303 14.38 121.119 14.38ZM148.036 14.38C148.66 14.38 149.176 14.584 149.584 14.992C149.992 15.4 150.196 15.928 150.196 16.576V31.804C150.196 32.428 149.992 32.956 149.584 33.388C149.176 33.796 148.66 34 148.036 34C147.412 34 146.896 33.796 146.488 33.388C146.08 32.956 145.876 32.428 145.876 31.804V30.04L146.668 30.364C146.668 30.676 146.5 31.06 146.164 31.516C145.828 31.948 145.372 32.38 144.796 32.812C144.22 33.244 143.536 33.616 142.744 33.928C141.976 34.216 141.136 34.36 140.224 34.36C138.568 34.36 137.068 33.94 135.724 33.1C134.38 32.236 133.312 31.06 132.52 29.572C131.752 28.06 131.368 26.332 131.368 24.388C131.368 22.42 131.752 20.692 132.52 19.204C133.312 17.692 134.368 16.516 135.688 15.676C137.008 14.812 138.472 14.38 140.08 14.38C141.112 14.38 142.06 14.536 142.924 14.848C143.788 15.16 144.532 15.556 145.156 16.036C145.804 16.516 146.296 17.008 146.632 17.512C146.992 17.992 147.172 18.4 147.172 18.736L145.876 19.204V16.576C145.876 15.952 146.08 15.436 146.488 15.028C146.896 14.596 147.412 14.38 148.036 14.38ZM140.764 30.4C141.82 30.4 142.744 30.136 143.536 29.608C144.328 29.08 144.94 28.36 145.372 27.448C145.828 26.536 146.056 25.516 146.056 24.388C146.056 23.236 145.828 22.204 145.372 21.292C144.94 20.38 144.328 19.66 143.536 19.132C142.744 18.604 141.82 18.34 140.764 18.34C139.732 18.34 138.82 18.604 138.028 19.132C137.236 19.66 136.612 20.38 136.156 21.292C135.724 22.204 135.508 23.236 135.508 24.388C135.508 25.516 135.724 26.536 136.156 27.448C136.612 28.36 137.236 29.08 138.028 29.608C138.82 30.136 139.732 30.4 140.764 30.4ZM155.09 15.1H163.622C164.198 15.1 164.678 15.292 165.062 15.676C165.446 16.06 165.638 16.54 165.638 17.116C165.638 17.668 165.446 18.136 165.062 18.52C164.678 18.88 164.198 19.06 163.622 19.06H155.09C154.514 19.06 154.034 18.868 153.65 18.484C153.266 18.1 153.074 17.62 153.074 17.044C153.074 16.492 153.266 16.036 153.65 15.676C154.034 15.292 154.514 15.1 155.09 15.1ZM158.942 10.6C159.566 10.6 160.07 10.816 160.454 11.248C160.862 11.656 161.066 12.172 161.066 12.796V28.816C161.066 29.152 161.126 29.428 161.246 29.644C161.39 29.86 161.57 30.016 161.786 30.112C162.026 30.208 162.278 30.256 162.542 30.256C162.83 30.256 163.094 30.208 163.334 30.112C163.574 29.992 163.85 29.932 164.162 29.932C164.498 29.932 164.798 30.088 165.062 30.4C165.35 30.712 165.494 31.144 165.494 31.696C165.494 32.368 165.122 32.92 164.378 33.352C163.658 33.784 162.878 34 162.038 34C161.534 34 160.97 33.964 160.346 33.892C159.746 33.796 159.17 33.592 158.618 33.28C158.09 32.944 157.646 32.44 157.286 31.768C156.926 31.096 156.746 30.172 156.746 28.996V12.796C156.746 12.172 156.95 11.656 157.358 11.248C157.79 10.816 158.318 10.6 158.942 10.6ZM173.672 31.804C173.672 32.428 173.468 32.956 173.06 33.388C172.652 33.796 172.136 34 171.512 34C170.888 34 170.372 33.796 169.964 33.388C169.556 32.956 169.352 32.428 169.352 31.804V16.936C169.352 16.312 169.556 15.796 169.964 15.388C170.372 14.956 170.888 14.74 171.512 14.74C172.136 14.74 172.652 14.956 173.06 15.388C173.468 15.796 173.672 16.312 173.672 16.936V31.804ZM171.476 12.4C170.66 12.4 170.084 12.268 169.748 12.004C169.412 11.74 169.244 11.272 169.244 10.6V9.916C169.244 9.22 169.424 8.752 169.784 8.512C170.168 8.248 170.744 8.116 171.512 8.116C172.352 8.116 172.94 8.248 173.276 8.512C173.612 8.776 173.78 9.244 173.78 9.916V10.6C173.78 11.296 173.6 11.776 173.24 12.04C172.88 12.28 172.292 12.4 171.476 12.4ZM188.228 14.38C190.148 14.38 191.564 14.848 192.476 15.784C193.388 16.696 193.988 17.884 194.276 19.348L193.664 19.024L193.952 18.448C194.24 17.896 194.684 17.308 195.284 16.684C195.884 16.036 196.604 15.496 197.444 15.064C198.308 14.608 199.268 14.38 200.324 14.38C202.052 14.38 203.36 14.752 204.248 15.496C205.16 16.24 205.784 17.236 206.12 18.484C206.456 19.708 206.624 21.076 206.624 22.588V31.804C206.624 32.428 206.42 32.956 206.012 33.388C205.604 33.796 205.088 34 204.464 34C203.84 34 203.324 33.796 202.916 33.388C202.508 32.956 202.304 32.428 202.304 31.804V22.588C202.304 21.796 202.208 21.088 202.016 20.464C201.824 19.816 201.476 19.3 200.972 18.916C200.468 18.532 199.748 18.34 198.812 18.34C197.9 18.34 197.12 18.532 196.472 18.916C195.824 19.3 195.332 19.816 194.996 20.464C194.684 21.088 194.528 21.796 194.528 22.588V31.804C194.528 32.428 194.324 32.956 193.916 33.388C193.508 33.796 192.992 34 192.368 34C191.744 34 191.228 33.796 190.82 33.388C190.412 32.956 190.208 32.428 190.208 31.804V22.588C190.208 21.796 190.112 21.088 189.92 20.464C189.728 19.816 189.38 19.3 188.876 18.916C188.372 18.532 187.652 18.34 186.716 18.34C185.804 18.34 185.024 18.532 184.376 18.916C183.728 19.3 183.236 19.816 182.9 20.464C182.588 21.088 182.432 21.796 182.432 22.588V31.804C182.432 32.428 182.228 32.956 181.82 33.388C181.412 33.796 180.896 34 180.272 34C179.648 34 179.132 33.796 178.724 33.388C178.316 32.956 178.112 32.428 178.112 31.804V16.936C178.112 16.312 178.316 15.796 178.724 15.388C179.132 14.956 179.648 14.74 180.272 14.74C180.896 14.74 181.412 14.956 181.82 15.388C182.228 15.796 182.432 16.312 182.432 16.936V18.484L181.892 18.376C182.108 17.968 182.408 17.536 182.792 17.08C183.176 16.6 183.644 16.156 184.196 15.748C184.748 15.34 185.36 15.016 186.032 14.776C186.704 14.512 187.436 14.38 188.228 14.38Z" fill="#252525"/>
<path d="M31.5265 16.9095C31.6264 16.3403 32.1254 15.9101 32.7082 15.9261C33.8251 15.9529 35.6002 16.8801 35.3439 19.7206C35.1713 21.6286 33.0562 26.703 34.9393 28.6697C36.825 30.6365 40.6829 28.13 42.369 26.3182C44.565 23.956 52.1297 14.0717 45.0021 4.30753C44.5839 3.73569 44.5947 2.95541 45.0371 2.3996C45.6253 1.66208 46.7179 1.57657 47.4031 2.21789C49.556 4.2434 53.3167 9.34992 51.5388 19.3305C49.3617 31.5664 33.4609 41.5015 29.0473 43.8049C28.3944 44.147 27.5931 44.0294 27.0698 43.5137C25.6399 42.1001 23.2605 38.6556 25.0167 32.3947C27.318 24.1965 30.5931 22.2886 31.5265 16.9095Z" fill="#F74F22"/>
<path d="M23.684 2.48779C21.2803 0.919227 18.4098 0 15.3181 0C6.85782 0 0 6.83274 0 15.2581C0 15.8647 0.0458648 16.4606 0.116008 17.0511C0.261689 19.3492 0.882185 21.7916 2.07731 24.3114C1.3597 17.3237 7.27867 11.4556 14.2606 11.4556C18.9467 11.4556 24.6121 14.4244 26.3468 21.658C26.425 21.4976 27.1399 20.1001 27.7199 18.1895C29.0877 13.7938 29.7784 7.05721 23.684 2.48779Z" fill="#F74F22"/>
<path d="M44.074 5.1279C42.6577 2.747 40.9041 1.27463 39.628 0.598572C38.6649 0.088187 37.8772 0.176368 37.3889 1.01543L37.37 1.0475C37.0166 1.65943 37.5238 2.5546 38.0444 3.05163C40.8906 5.76923 42.3204 8.80481 43.3564 11.8965C43.4373 12.1424 43.3753 12.4122 43.1945 12.5993C42.8222 12.9948 42.1613 12.8532 41.9805 12.3454C41.2899 10.3867 40.2404 8.82352 38.9994 7.23091C37.1811 4.89543 35.2198 3.39367 33.7765 2.77907C32.8296 2.37557 31.8907 2.51452 31.513 3.46047L31.4996 3.49788C31.2217 4.19265 31.5805 4.8794 32.1929 5.33634C35.9995 8.18755 38.379 11.7816 39.8843 15.4238C39.9545 15.5948 39.9653 16.009 39.8331 16.1426C39.5957 16.3804 39.2315 16.2789 39.0615 15.993C38.039 14.2641 37.4779 13.5399 36.4446 12.2653C34.7477 10.1783 33.8493 9.62784 32.3683 8.86627C31.737 8.54027 30.8899 8.64181 30.4393 9.22167C29.889 9.93782 30.1614 10.7742 30.9789 11.4022C37.8529 16.6797 39.2045 22.5879 38.5516 27.4806C38.5597 27.4192 38.9536 27.2241 39.0048 27.1894C39.4203 26.9061 39.8142 26.5935 40.1946 26.2675C41.4679 25.1745 42.539 23.8652 43.4697 22.4783C44.3465 21.1716 45.1477 19.7607 45.6333 18.2456C46.1594 16.5969 46.3267 14.8306 46.2889 13.107C46.2835 12.8852 46.2754 12.6634 46.2619 12.4416C46.1244 9.87636 45.3905 7.34046 44.074 5.1279Z" fill="#F74F22"/>
<path d="M23.0797 33.5785C23.2497 32.6914 22.8612 31.7935 22.0815 31.3259C21.14 30.7647 20.1607 30.1501 19.5645 29.7146C17.3523 28.1059 15.3721 26.222 14.069 24.4477C12.1455 21.829 10.5214 18.291 11.1581 15.031C11.3551 14.0236 11.7921 13.0936 12.391 12.2653C13.1572 11.2044 14.1877 10.3066 15.3235 9.60912V0.0774841C6.96303 0.192388 0.218521 6.97436 0.218521 15.3302C0.218521 15.9368 0.264386 16.5327 0.334529 17.1233C0.563842 20.7093 1.71041 24.7363 4.63753 28.7793C6.89828 31.9031 10.5619 35.123 14.3955 37.9529C17.9053 40.5449 21.7497 42.728 25.3378 44C23.7946 42.1909 22.0599 38.8587 23.0797 33.5785Z" fill="#F74F22"/>
</svg>
